<?xml version="1.0" standalone="no"?><!DOCTYPE svg PUBLIC "-//W3C//DTD SVG 1.1//EN" "http://www.w3.org/Graphics/SVG/1.1/DTD/svg11.dtd"><svg t="1633934921196" class="icon" viewBox="0 0 1024 1024" version="1.1" xmlns="http://www.w3.org/2000/svg" p-id="1267" xmlns:xlink="http://www.w3.org/1999/xlink" width="200" height="200"><defs><style type="text/css"></style></defs><path d="M389.5 731.04c-2.86-12.8-14.51-21.93-27.98-21.93H154.27V152.69h572.28v255.54c0 12.06 7.71 22.84 19.33 27.05 19.48 7.05 40.2-7.05 40.04-27.26l-2.1-276.42c0-19.1-15.92-34.58-35.57-34.58H132.57C112.92 97 97 112.48 97 131.58v598.63c0 19.1 15.92 34.58 35.57 34.58h228.95c18.26 0 31.86-16.4 27.98-33.75z" p-id="1268"></path><path d="M927 606.62L410.74 404.87 526.11 927l127.95-191.63 172.62 167.84 50.3-48.9-168.13-163.47z" p-id="1269"></path></svg>